<svg width="226" height="74" viewBox="0 0 226 74" fill="none" xmlns="http://www.w3.org/2000/svg">
<path d="M19.25 68H0.640625V0.5H33.8281C36.9531 0.5 39.9688 0.875 42.875 1.625C45.7812 2.34375 48.3438 3.5 50.5625 5.09375C52.8125 6.65625 54.5938 8.6875 55.9062 11.1875C57.25 13.6875 57.9219 16.7188 57.9219 20.2812C57.9219 23.0625 57.3281 25.6875 56.1406 28.1562C54.9844 30.5938 53.4219 32.7812 51.4531 34.7188C49.5156 36.625 47.2812 38.2188 44.75 39.5C42.2188 40.75 39.5938 41.5781 36.875 41.9844C38.0938 44.0469 39.3594 46 40.6719 47.8438C42.0156 49.6875 43.3594 51.4219 44.7031 53.0469C46.0781 54.6406 47.4375 56.125 48.7812 57.5C50.125 58.8438 51.4062 60.0781 52.625 61.2031C55.5 63.8281 58.3438 66.0938 61.1562 68H37.9531C36.0781 66.2188 34.2969 64.0781 32.6094 61.5781C31.1719 59.4531 29.7188 56.8281 28.25 53.7031C26.8125 50.5469 25.7031 46.9062 24.9219 42.7812H19.25V68ZM39.0312 20.2812C39.0312 15.75 37.9219 12.4219 35.7031 10.2969C33.5156 8.17188 30.2188 7.10938 25.8125 7.10938H19.25V36.4062H25.8125C28.1562 36.4062 30.1562 35.9688 31.8125 35.0938C33.5 34.1875 34.875 33 35.9375 31.5312C37 30.0312 37.7812 28.3125 38.2812 26.375C38.7812 24.4375 39.0312 22.4062 39.0312 20.2812ZM72.5107 54.6211C73.5199 54.849 74.529 55.028 75.5381 55.1582C76.5472 55.2884 77.5645 55.3535 78.5898 55.3535C79.6641 55.3535 80.6569 55.2559 81.5684 55.0605C82.4961 54.849 83.2936 54.5072 83.9609 54.0352C84.6445 53.5469 85.1816 52.904 85.5723 52.1064C85.9629 51.3089 86.1582 50.3161 86.1582 49.1279C86.1582 48.1676 86.028 47.2887 85.7676 46.4912C85.5072 45.6937 85.1165 45.0101 84.5957 44.4404C84.0911 43.8708 83.4645 43.4313 82.7158 43.1221C81.9671 42.7965 81.0964 42.6338 80.1035 42.6338C79.1758 42.6338 78.3376 42.8047 77.5889 43.1465C76.8564 43.4883 76.2054 43.9521 75.6357 44.5381C75.0824 45.1077 74.6022 45.7751 74.1953 46.54C73.8047 47.305 73.4792 48.1025 73.2188 48.9326C72.9583 49.7627 72.7712 50.6009 72.6572 51.4473C72.5433 52.2936 72.4863 53.0911 72.4863 53.8398C72.4863 53.9701 72.4863 54.1003 72.4863 54.2305C72.4863 54.3607 72.4945 54.4909 72.5107 54.6211ZM92.8477 49.0547C92.8477 50.2103 92.6605 51.2438 92.2861 52.1553C91.9118 53.0505 91.3991 53.8398 90.748 54.5234C90.1133 55.207 89.3727 55.7848 88.5264 56.2568C87.68 56.7288 86.7767 57.1195 85.8164 57.4287C84.8561 57.7217 83.8633 57.9333 82.8379 58.0635C81.8288 58.1937 80.8441 58.2588 79.8838 58.2588C78.6631 58.2588 77.4587 58.1774 76.2705 58.0146C75.0824 57.8356 73.9105 57.5589 72.7549 57.1846C72.9339 58.2588 73.2188 59.2842 73.6094 60.2607C74 61.221 74.5208 62.0674 75.1719 62.7998C75.8229 63.516 76.6204 64.0856 77.5645 64.5088C78.5247 64.932 79.6559 65.1436 80.958 65.1436C81.8206 65.1436 82.6426 65.0133 83.4238 64.7529C84.2051 64.4925 84.9212 64.1263 85.5723 63.6543C86.2233 63.1823 86.793 62.6208 87.2812 61.9697C87.7858 61.3187 88.1927 60.5944 88.502 59.7969L92.0664 61.1152C91.5293 62.401 90.7887 63.516 89.8447 64.46C88.917 65.3877 87.859 66.1608 86.6709 66.7793C85.499 67.3815 84.2458 67.8291 82.9111 68.1221C81.5928 68.415 80.2826 68.5615 78.9805 68.5615C76.832 68.5615 74.8464 68.2035 73.0234 67.4873C71.2005 66.7549 69.6299 65.7376 68.3115 64.4355C66.9932 63.1335 65.9596 61.5791 65.2109 59.7725C64.4622 57.9658 64.0879 55.9883 64.0879 53.8398C64.0879 51.6914 64.4622 49.7139 65.2109 47.9072C65.9596 46.1006 66.9932 44.5462 68.3115 43.2441C69.6299 41.9421 71.2005 40.9329 73.0234 40.2168C74.8464 39.4844 76.832 39.1182 78.9805 39.1182C80.0221 39.1182 81.0882 39.1914 82.1787 39.3379C83.2692 39.4844 84.3271 39.7204 85.3525 40.0459C86.3779 40.3551 87.3464 40.762 88.2578 41.2666C89.1693 41.7712 89.9587 42.3978 90.626 43.1465C91.3096 43.8789 91.8467 44.7334 92.2373 45.71C92.6442 46.6865 92.8477 47.8014 92.8477 49.0547ZM126.832 51.8379C126.832 53.7422 126.596 55.7279 126.124 57.7949C125.668 59.862 125.025 61.8883 124.195 63.874C123.365 65.8597 122.372 67.7233 121.217 69.4648C120.061 71.2227 118.792 72.7363 117.408 74.0059L114.308 72.3213C114.747 71.5075 115.162 70.596 115.553 69.5869C115.943 68.5778 116.293 67.5117 116.603 66.3887C116.928 65.2493 117.213 64.0775 117.457 62.873C117.717 61.6686 117.929 60.4805 118.092 59.3086C118.271 58.1204 118.401 56.973 118.482 55.8662C118.58 54.7432 118.629 53.7015 118.629 52.7412C118.629 52.1064 118.604 51.431 118.556 50.7148C118.507 49.9824 118.401 49.2581 118.238 48.542C118.092 47.8096 117.888 47.1097 117.628 46.4424C117.368 45.7751 117.018 45.1891 116.578 44.6846C116.155 44.18 115.634 43.7731 115.016 43.4639C114.413 43.1546 113.697 43 112.867 43C112.053 43 111.329 43.1872 110.694 43.5615C110.06 43.9196 109.498 44.3997 109.01 45.002C108.521 45.5879 108.098 46.2633 107.74 47.0283C107.398 47.7933 107.114 48.5827 106.886 49.3965C106.674 50.194 106.52 50.9834 106.422 51.7646C106.324 52.5459 106.275 53.2458 106.275 53.8643V68H97.999V39.8018H101.173L104.957 46.3691C105.413 45.2786 105.982 44.2858 106.666 43.3906C107.35 42.4954 108.123 41.7305 108.985 41.0957C109.848 40.4609 110.8 39.9727 111.842 39.6309C112.9 39.2891 114.039 39.1182 115.26 39.1182C117.213 39.1182 118.914 39.4355 120.362 40.0703C121.811 40.7051 123.015 41.5921 123.976 42.7314C124.936 43.8545 125.652 45.1973 126.124 46.7598C126.596 48.306 126.832 49.9987 126.832 51.8379ZM130.836 55.9395C130.836 54.6536 130.942 53.319 131.153 51.9355C131.381 50.5521 131.699 49.1686 132.105 47.7852C132.529 46.4017 133.033 45.0345 133.619 43.6836C134.205 42.3327 134.864 41.0387 135.597 39.8018H141.627C141.22 41.0225 140.854 42.3001 140.528 43.6348C140.219 44.9531 139.951 46.2796 139.723 47.6143C139.511 48.9326 139.34 50.2266 139.21 51.4961C139.096 52.7656 139.039 53.9456 139.039 55.0361C139.039 55.6709 139.063 56.3545 139.112 57.0869C139.177 57.8031 139.283 58.5273 139.43 59.2598C139.576 59.9759 139.78 60.6676 140.04 61.335C140.317 62.0023 140.667 62.5964 141.09 63.1172C141.513 63.6217 142.026 64.0286 142.628 64.3379C143.246 64.6309 143.971 64.7773 144.801 64.7773C145.615 64.7773 146.339 64.5983 146.974 64.2402C147.625 63.8659 148.194 63.3857 148.683 62.7998C149.171 62.1976 149.586 61.514 149.928 60.749C150.27 59.984 150.546 59.2028 150.758 58.4053C150.986 57.5915 151.148 56.8021 151.246 56.0371C151.36 55.2559 151.417 54.556 151.417 53.9375V39.8018H159.669V68H156.495L152.711 61.4326C152.239 62.5231 151.661 63.516 150.978 64.4111C150.31 65.29 149.545 66.0469 148.683 66.6816C147.82 67.3164 146.86 67.8047 145.802 68.1465C144.76 68.4883 143.629 68.6592 142.408 68.6592C140.455 68.6592 138.754 68.3418 137.306 67.707C135.857 67.0723 134.653 66.1934 133.692 65.0703C132.732 63.9473 132.016 62.6126 131.544 61.0664C131.072 59.5039 130.836 57.7949 130.836 55.9395ZM174.806 68H166.554V29.4258H174.806V54.7432C176.157 53.7666 177.483 52.6924 178.785 51.5205C180.104 50.3486 181.357 49.1198 182.545 47.834C183.733 46.5319 184.832 45.2054 185.841 43.8545C186.866 42.5036 187.761 41.1527 188.526 39.8018H194.142C193.002 41.7223 191.651 43.6429 190.089 45.5635C188.526 47.4678 186.826 49.2907 184.986 51.0322L194.239 68H185.133L178.565 56.2324C177.345 57.0625 176.091 57.8275 174.806 58.5273V68ZM225.953 68H217.701V64.6309C216.725 65.9655 215.545 66.9583 214.161 67.6094C212.794 68.2441 211.288 68.5615 209.645 68.5615C207.496 68.5615 205.576 68.179 203.883 67.4141C202.19 66.6491 200.758 65.6074 199.586 64.2891C198.414 62.9544 197.519 61.3919 196.9 59.6016C196.282 57.8112 195.973 55.8906 195.973 53.8398C195.973 51.7891 196.282 49.8685 196.9 48.0781C197.519 46.2878 198.414 44.7334 199.586 43.415C200.758 42.0804 202.19 41.0306 203.883 40.2656C205.576 39.5007 207.496 39.1182 209.645 39.1182C210.735 39.1182 211.769 39.2809 212.745 39.6064C213.738 39.932 214.641 40.3958 215.455 40.998C216.285 41.584 217.009 42.3001 217.628 43.1465C218.263 43.9766 218.759 44.9043 219.117 45.9297L222.779 39.8018H225.953V68ZM217.652 53.8398C217.652 53.1074 217.612 52.3343 217.53 51.5205C217.465 50.7067 217.343 49.901 217.164 49.1035C216.985 48.306 216.733 47.5492 216.407 46.833C216.098 46.1006 215.691 45.4577 215.187 44.9043C214.698 44.3346 214.104 43.887 213.404 43.5615C212.704 43.236 211.891 43.0732 210.963 43.0732C210.035 43.0732 209.229 43.2441 208.546 43.5859C207.862 43.9115 207.276 44.359 206.788 44.9287C206.3 45.4821 205.893 46.125 205.567 46.8574C205.258 47.5898 205.014 48.3548 204.835 49.1523C204.656 49.9499 204.526 50.7555 204.444 51.5693C204.379 52.3669 204.347 53.1237 204.347 53.8398C204.347 54.556 204.379 55.321 204.444 56.1348C204.526 56.9486 204.656 57.7542 204.835 58.5518C205.014 59.3493 205.258 60.1143 205.567 60.8467C205.893 61.5791 206.3 62.2301 206.788 62.7998C207.276 63.3532 207.862 63.8008 208.546 64.1426C209.229 64.4681 210.035 64.6309 210.963 64.6309C211.809 64.6309 212.558 64.46 213.209 64.1182C213.876 63.7601 214.454 63.2881 214.942 62.7021C215.447 62.1162 215.87 61.4489 216.212 60.7002C216.554 59.9515 216.83 59.1784 217.042 58.3809C217.254 57.5833 217.408 56.7939 217.506 56.0127C217.604 55.2152 217.652 54.4909 217.652 53.8398Z" fill="white"/>
</svg>
